<?xml version="1.0" standalone="no"?>
<!DOCTYPE svg PUBLIC "-//W3C//DTD SVG 20010904//EN"
 "http://www.w3.org/TR/2001/REC-SVG-20010904/DTD/svg10.dtd">
<svg version="1.0" xmlns="http://www.w3.org/2000/svg"
 width="512.000000pt" height="512.000000pt" viewBox="0 0 512.000000 512.000000"
 preserveAspectRatio="xMidYMid meet">

<g transform="translate(0.000000,512.000000) scale(0.100000,-0.100000)"
fill="#ffffff" stroke="none">
<path d="M2273 3608 c-156 -156 -283 -287 -283 -292 0 -5 127 -134 283 -287
l282 -278 282 281 282 282 -29 35 c-16 20 -143 150 -282 289 l-253 252 -282
-282z"/>
<path d="M1503 2846 c-150 -150 -273 -279 -273 -286 0 -8 126 -140 280 -294
l279 -281 288 288 288 287 -282 280 c-154 154 -287 280 -295 279 -7 0 -136
-123 -285 -273z"/>
<path d="M3025 2840 c-153 -153 -276 -283 -272 -287 4 -4 132 -133 285 -285
l277 -278 285 285 285 285 -280 280 c-154 154 -284 280 -290 280 -6 0 -136
-126 -290 -280z"/>
<path d="M2267 2082 c-152 -152 -277 -282 -277 -287 0 -6 126 -136 280 -290
l280 -280 287 287 288 288 -282 280 c-155 154 -286 280 -290 280 -5 0 -133
-125 -286 -278z"/>
</g>
</svg>
